P3
4 4
255
225 255 0
225 255 0
225 255 0
225 150 0
225 255 0
0 215 100
190 0 0
160 0 120
225 255 0
111 79 190
118 255 88
99 88 54
0 192 226
0 118 110
0 156 150
0 80 190
