P3
4 4
255
229 229 229
229 229 229
229 229 229
154 154 154
229 229 229
160 160 160
40 40 40
42 42 42
229 229 229
92 92 92
213 213 213
86 86 86
153 153 153
91 91 91
121 121 121
70 70 70
